<svg width="31" height="31" viewBox="0 0 31 31" fill="none" xmlns="http://www.w3.org/2000/svg">
<path d="M3.54167 30.875C2.60208 30.875 1.79063 30.5476 1.10729 29.8927C0.452431 29.2094 0.125 28.3979 0.125 27.4583V3.54167C0.125 2.60208 0.452431 1.80486 1.10729 1.15C1.79063 0.466667 2.60208 0.125 3.54167 0.125H27.4583C28.3979 0.125 29.1951 0.466667 29.85 1.15C30.5333 1.80486 30.875 2.60208 30.875 3.54167V27.4583C30.875 28.3979 30.5333 29.2094 29.85 29.8927C29.1951 30.5476 28.3979 30.875 27.4583 30.875H3.54167ZM3.54167 27.4583H27.4583V22.3333H22.3333C21.4792 23.4153 20.4542 24.2552 19.2583 24.8531C18.091 25.451 16.8382 25.75 15.5 25.75C14.1618 25.75 12.8948 25.451 11.699 24.8531C10.5316 24.2552 9.52083 23.4153 8.66667 22.3333H3.54167V27.4583ZM15.5 22.3333C16.5819 22.3333 17.5642 22.0201 18.4469 21.3938C19.3295 20.7674 19.9417 19.9417 20.2833 18.9167H27.4583V3.54167H3.54167V18.9167H10.7167C11.0583 19.9417 11.6705 20.7674 12.5531 21.3938C13.4358 22.0201 14.4181 22.3333 15.5 22.3333ZM3.54167 27.4583H8.66667C9.52083 27.4583 10.5316 27.4583 11.699 27.4583C12.8948 27.4583 14.1618 27.4583 15.5 27.4583C16.8382 27.4583 18.091 27.4583 19.2583 27.4583C20.4542 27.4583 21.4792 27.4583 22.3333 27.4583H27.4583H3.54167Z" fill="#606060"/>
</svg>
